
      <svg data-logo="logo" xmlns="http://www.w3.org/2000/svg" viewBox="0 0 160 30">
        <g id="logogram" transform="translate(0, 15) rotate(0)"></g>
        <g id="logotype" transform="translate(0, 1)"><path fill="#08ccfd" d="M14.39 20.23L14.39 17.53Q14.39 16.48 14.33 15.35Q14.28 14.21 13.98 13.25Q13.69 12.28 12.99 11.67Q12.29 11.06 10.96 11.06L10.96 11.06Q9.03 11.06 8.00 12.04Q6.97 13.02 6.56 14.52Q6.16 16.03 6.06 17.67L6.06 17.67L6.06 20.23Q6.06 22.19 6.14 24.15Q6.23 26.11 6.69 28L6.69 28L2.10 28Q2.56 26.11 2.64 24.15Q2.73 22.19 2.73 20.23L2.73 20.23L2.73 16.45Q2.73 14.56 2.59 13.35Q2.45 12.14 2.17 11.30Q1.89 10.46 1.40 9.69L1.40 9.69L1.40 9.48L6.06 8.50L6.06 11.34L6.30 11.34Q6.83 10.46 7.40 9.78Q7.98 9.10 8.93 8.68Q9.87 8.26 11.45 8.26L11.45 8.26Q13.79 8.26 15.09 9.29Q16.38 10.32 16.98 11.93L16.98 11.93L17.19 11.93Q17.71 11.06 18.46 10.22Q19.22 9.38 20.34 8.82Q21.46 8.26 23.03 8.26L23.03 8.26Q25.17 8.26 26.43 9.06Q27.69 9.87 28.32 11.22Q28.95 12.56 29.14 14.21Q29.33 15.85 29.33 17.53L29.33 17.53L29.33 20.23Q29.33 22.19 29.42 24.15Q29.51 26.11 29.96 28L29.96 28L25.38 28Q25.83 26.11 25.92 24.15Q26.01 22.19 26.01 20.23L26.01 20.23L26.01 17.53Q26.01 16.48 25.97 15.35Q25.94 14.21 25.66 13.25Q25.38 12.28 24.66 11.67Q23.94 11.06 22.58 11.06L22.58 11.06Q20.58 11.06 19.58 11.93Q18.59 12.81 18.20 14.19Q17.82 15.57 17.71 17.11L17.71 17.11L17.71 20.23Q17.71 22.19 17.80 24.15Q17.89 26.11 18.34 28L18.34 28L13.76 28Q14.21 26.11 14.30 24.15Q14.39 22.19 14.39 20.23L14.39 20.23ZM42.04 28.49L42.04 28.49Q40.08 28.49 38.34 27.72Q36.61 26.95 35.26 25.59Q33.92 24.22 33.16 22.38Q32.41 20.54 32.41 18.41L32.41 18.41Q32.41 16.27 33.16 14.42Q33.92 12.56 35.25 11.18Q36.58 9.80 38.31 9.03Q40.04 8.26 42 8.26L42 8.26Q44.63 8.26 46.41 9.61Q48.20 10.95 49.12 13.25Q50.05 15.54 50.05 18.41L50.05 18.41L35.84 18.41Q35.84 20.41 36.77 22.07Q37.70 23.73 39.29 24.71Q40.88 25.69 42.84 25.69L42.84 25.69Q44.80 25.69 46.08 24.99Q47.36 24.29 48.13 23.13L48.13 23.13L49.39 24.22Q49 24.99 48.14 25.99Q47.29 26.98 45.80 27.74Q44.31 28.49 42.04 28.49ZM36.12 15.78L36.12 15.78L46.41 15.78Q46.03 13.61 44.87 12.34Q43.72 11.06 41.65 11.06L41.65 11.06Q39.41 11.06 38.01 12.34Q36.61 13.61 36.12 15.78ZM59.47 28.49L59.47 28.49Q54.53 28.49 54.53 22.19L54.53 22.19L54.53 11.16Q54.53 11.16 54.04 11.22Q53.55 11.27 52.89 11.36Q52.22 11.44 51.63 11.55L51.63 11.55L51.63 11.16L57.51 4.69L57.86 4.69L57.86 8.75L62.79 8.75L63.14 11.55Q62.44 11.41 61.76 11.34Q61.08 11.27 60.17 11.22Q59.26 11.16 57.86 11.16L57.86 11.16L57.86 22.05Q57.86 24.01 58.40 24.78Q58.94 25.55 60.31 25.55L60.31 25.55Q61.18 25.55 61.74 25.20Q62.30 24.85 62.76 24.18L62.76 24.18L63.74 25.52Q63.21 26.81 62.16 27.65Q61.11 28.49 59.47 28.49ZM76.97 10.25L76.97 10.25L76.55 13.79L76.41 13.79Q75.84 12.49 74.67 11.78Q73.50 11.06 72.17 11.06L72.17 11.06Q70.67 11.06 69.74 11.64Q68.81 12.21 68.81 13.44L68.81 13.44Q68.81 14.77 69.91 15.47Q71.02 16.17 72.45 16.77L72.45 16.77Q73.71 17.29 74.97 17.97Q76.23 18.66 77.07 19.79Q77.91 20.93 77.91 22.86L77.91 22.86Q77.91 24.68 77.02 25.93Q76.13 27.20 74.64 27.84Q73.15 28.49 71.37 28.49L71.37 28.49Q69.86 28.49 68.67 27.98Q67.48 27.48 66.69 26.77Q65.91 26.07 65.66 25.52L65.66 25.52L66.15 21.63L66.29 21.63Q66.36 22.05 66.73 22.73Q67.09 23.41 67.76 24.08Q68.42 24.75 69.34 25.22Q70.25 25.69 71.37 25.69L71.37 25.69Q72.94 25.69 73.90 24.92Q74.87 24.15 74.87 22.75L74.87 22.75Q74.87 21.42 73.76 20.68Q72.66 19.95 71.19 19.32L71.19 19.32Q69.93 18.76 68.69 18.11Q67.45 17.46 66.62 16.40Q65.80 15.33 65.80 13.61L65.80 13.61Q65.80 11.79 66.66 10.62Q67.52 9.45 68.97 8.85Q70.42 8.26 72.20 8.26L72.20 8.26Q74.17 8.26 75.34 8.98Q76.51 9.69 76.97 10.25ZM80.54 3.29L83.41 0.42L86.31 3.29L83.41 6.19L80.54 3.29ZM82.11 20.23L82.11 20.23L82.11 16.45Q82.11 14.56 81.97 13.35Q81.83 12.14 81.55 11.30Q81.27 10.46 80.78 9.69L80.78 9.69L80.78 9.48L85.44 8.50L85.44 20.23Q85.44 22.19 85.52 24.15Q85.61 26.11 86.07 28L86.07 28L81.48 28Q81.94 26.11 82.02 24.15Q82.11 22.19 82.11 20.23ZM113.05 23.13L114.31 24.22Q113.93 24.99 113.07 25.99Q112.21 26.98 110.72 27.74Q109.24 28.49 106.96 28.49L106.96 28.49Q105.00 28.49 103.27 27.72Q101.54 26.95 100.19 25.59Q98.84 24.22 98.09 22.38Q97.34 20.54 97.34 18.41L97.34 18.41Q97.34 16.27 98.09 14.42Q98.84 12.56 100.19 11.18Q101.54 9.80 103.27 9.03Q105.00 8.26 106.96 8.26L106.96 8.26Q109.13 8.26 110.69 8.85Q112.25 9.45 113.26 10.29L113.26 10.29L113.16 14.28L112.91 14.28Q112.14 12.98 110.72 12.02Q109.31 11.06 106.96 11.06L106.96 11.06Q105.07 11.06 103.69 12.00Q102.31 12.95 101.54 14.59Q100.77 16.24 100.77 18.41L100.77 18.41Q100.77 20.61 101.76 22.26Q102.76 23.91 104.37 24.80Q105.98 25.69 107.77 25.69L107.77 25.69Q109.73 25.69 111.00 24.99Q112.28 24.29 113.05 23.13L113.05 23.13ZM128.56 13.02L128.34 13.02Q127.79 12.04 127.02 11.72Q126.25 11.41 125.23 11.41L125.23 11.41Q123.66 11.41 122.75 12.46Q121.84 13.51 121.42 15.24Q121.00 16.98 120.89 19.07L120.89 19.07L120.89 20.23Q120.89 22.19 120.98 24.15Q121.07 26.11 121.52 28L121.52 28L116.94 28Q117.39 26.11 117.48 24.15Q117.57 22.19 117.57 20.23L117.57 20.23L117.57 16.45Q117.57 14.56 117.43 13.35Q117.29 12.14 117.01 11.30Q116.73 10.46 116.24 9.69L116.24 9.69L116.24 9.48L120.89 8.50L120.89 12.39L121.14 12.39Q121.59 10.57 122.94 9.41Q124.29 8.26 126.28 8.26L126.28 8.26Q127.33 8.26 127.94 8.56Q128.56 8.85 128.56 8.85L128.56 8.85L128.56 13.02ZM143.81 20.23L143.81 17.53Q143.81 16.48 143.76 15.35Q143.71 14.21 143.41 13.25Q143.12 12.28 142.42 11.67Q141.72 11.06 140.39 11.06L140.39 11.06Q138.46 11.06 137.43 12.04Q136.40 13.02 135.99 14.52Q135.59 16.03 135.49 17.67L135.49 17.67L135.49 20.23Q135.49 22.19 135.57 24.15Q135.66 26.11 136.12 28L136.12 28L131.53 28Q131.99 26.11 132.07 24.15Q132.16 22.19 132.16 20.23L132.16 20.23L132.16 16.45Q132.16 14.56 132.02 13.35Q131.88 12.14 131.60 11.30Q131.32 10.46 130.83 9.69L130.83 9.69L130.83 9.48L135.49 8.50L135.49 11.34L135.73 11.34Q136.25 10.46 136.83 9.78Q137.41 9.10 138.36 8.68Q139.30 8.26 140.88 8.26L140.88 8.26Q143.22 8.26 144.52 9.29Q145.81 10.32 146.41 11.93L146.41 11.93L146.62 11.93Q147.14 11.06 147.89 10.22Q148.65 9.38 149.77 8.82Q150.89 8.26 152.46 8.26L152.46 8.26Q154.59 8.26 155.86 9.06Q157.12 9.87 157.75 11.22Q158.38 12.56 158.57 14.21Q158.76 15.85 158.76 17.53L158.76 17.53L158.76 20.23Q158.76 22.19 158.85 24.15Q158.94 26.11 159.39 28L159.39 28L154.81 28Q155.26 26.11 155.35 24.15Q155.44 22.19 155.44 20.23L155.44 20.23L155.44 17.53Q155.44 16.48 155.40 15.35Q155.37 14.21 155.09 13.25Q154.81 12.28 154.09 11.67Q153.37 11.06 152.00 11.06L152.00 11.06Q150.01 11.06 149.01 11.93Q148.02 12.81 147.63 14.19Q147.25 15.57 147.14 17.11L147.14 17.11L147.14 20.23Q147.14 22.19 147.23 24.15Q147.31 26.11 147.77 28L147.77 28L143.19 28Q143.64 26.11 143.73 24.15Q143.81 22.19 143.81 20.23L143.81 20.23Z"/></g>

      </svg>
    